<?xml version="1.0" encoding="utf-8"?>
<!-- Generator: Adobe Illustrator 27.4.1, SVG Export Plug-In . SVG Version: 6.00 Build 0)  -->
<svg version="1.1" xmlns="http://www.w3.org/2000/svg" xmlns:xlink="http://www.w3.org/1999/xlink" x="0px" y="0px"
	 viewBox="0 0 1024 1077" style="enable-background:new 0 0 1024 1077;" xml:space="preserve">
<style type="text/css">
	.st0{fill:#1D1F25;}
	.st1{fill:#DFEBDD;}
	.st2{clip-path:url(#SVGID_00000044168505645943485410000007802609062184123780_);fill:#FFCE5E;}
	.st3{opacity:0.3;clip-path:url(#SVGID_00000044168505645943485410000007802609062184123780_);fill:#FFB21E;}
	.st4{clip-path:url(#SVGID_00000044168505645943485410000007802609062184123780_);}
	.st5{opacity:0.19;fill:#C67438;}
	.st6{fill:#FFCB4C;}
	.st7{fill:#FFCB2C;}
	.st8{opacity:0.36;fill:#C89678;}
	.st9{fill:#FFFFFF;}
	.st10{opacity:0.5;fill:#FFFFFF;}
	.st11{opacity:0.19;}
	.st12{fill:#C67438;}
	.st13{opacity:0.3;clip-path:url(#SVGID_00000044168505645943485410000007802609062184123780_);}
</style>
<g id="Layer_1">
	<rect x="0.03" y="1022.41" class="st0" width="1023.69" height="55.78"/>
	<g>
		<g>
			<g>
				<path class="st1" d="M330.67,1040.21h4.03c3.17,0,5.78,0.83,7.83,2.48c2.07,1.66,3.1,4.02,3.1,7.09c0,3.16-1.02,5.58-3.07,7.25
					c-2.05,1.68-4.69,2.51-7.94,2.51h-3.95V1040.21z M333.09,1057.35h0.85c1.26,0,2.45-0.12,3.57-0.37c1.12-0.25,2.1-0.67,2.94-1.26
					c0.83-0.6,1.5-1.37,2-2.31c0.5-0.95,0.75-2.12,0.75-3.52c0-1.39-0.24-2.57-0.74-3.55c-0.49-0.99-1.17-1.75-2.06-2.3
					c-0.87-0.56-1.84-0.97-2.9-1.22c-1.06-0.27-2.25-0.39-3.55-0.39h-0.85V1057.35z"/>
				<path class="st1" d="M349.19,1053.94c0.03,1.07,0.38,2.01,1.03,2.8c0.67,0.79,1.54,1.17,2.61,1.17c0.85,0,1.54-0.19,2.08-0.58
					c0.54-0.39,1.06-0.97,1.54-1.75l1.97,1.1c-0.57,1.02-1.35,1.82-2.34,2.42c-0.99,0.58-2.08,0.86-3.27,0.86
					c-1.81,0-3.26-0.59-4.34-1.79c-1.07-1.23-1.61-2.72-1.61-4.52c0-1.88,0.51-3.45,1.53-4.66c1-1.21,2.45-1.79,4.37-1.79
					c1.87,0,3.26,0.58,4.21,1.79c0.96,1.19,1.45,2.73,1.45,4.59v0.36H349.19z M356.09,1052.2c-0.15-0.93-0.49-1.67-1.07-2.2
					c-0.58-0.54-1.33-0.81-2.26-0.81c-0.44,0-0.87,0.06-1.25,0.21c-0.39,0.16-0.73,0.37-1.03,0.63c-0.3,0.28-0.55,0.6-0.76,0.97
					c-0.2,0.38-0.33,0.77-0.39,1.2H356.09z"/>
				<path class="st1" d="M365.27,1050.3c-0.35-0.71-0.86-1.06-1.55-1.06c-0.33,0-0.62,0.12-0.88,0.34
					c-0.26,0.24-0.39,0.52-0.39,0.83c0,0.31,0.1,0.58,0.3,0.79c0.19,0.22,0.47,0.41,0.81,0.6c0.23,0.1,0.4,0.19,0.52,0.23
					c0.12,0.07,0.31,0.16,0.59,0.29c0.13,0.06,0.26,0.12,0.36,0.15c0.1,0.03,0.18,0.06,0.24,0.1c0.86,0.39,1.54,0.84,2.04,1.36
					c0.49,0.5,0.75,1.2,0.75,2.05c0,1.13-0.42,2.08-1.24,2.84c-0.81,0.76-1.79,1.13-2.92,1.13c-0.47,0-0.92-0.06-1.35-0.19
					c-0.43-0.12-0.83-0.3-1.21-0.54c-0.37-0.23-0.69-0.51-0.98-0.85c-0.28-0.34-0.5-0.71-0.66-1.11l1.99-0.89
					c0.57,1.02,1.3,1.53,2.2,1.53c0.36,0,0.7-0.09,1-0.29c0.32-0.2,0.55-0.44,0.69-0.74c0.14-0.31,0.18-0.63,0.09-0.99
					c-0.09-0.34-0.35-0.67-0.8-0.98l-2.28-1.2c-0.39-0.2-0.73-0.41-1.03-0.62c-0.29-0.21-0.53-0.42-0.72-0.65
					c-0.19-0.24-0.33-0.49-0.43-0.76c-0.09-0.29-0.14-0.61-0.14-0.99c0-0.98,0.34-1.8,1.04-2.47c0.69-0.68,1.53-1.01,2.53-1.01
					c1.52,0,2.62,0.68,3.31,2.1L365.27,1050.3z"/>
				<path class="st1" d="M373.61,1042.06c0,0.43-0.15,0.8-0.46,1.1c-0.31,0.31-0.69,0.46-1.13,0.46c-0.45,0-0.83-0.15-1.14-0.46
					c-0.31-0.3-0.46-0.67-0.46-1.1c0-0.45,0.15-0.83,0.46-1.15c0.31-0.32,0.69-0.46,1.14-0.46c0.44,0,0.82,0.15,1.13,0.46
					C373.45,1041.23,373.61,1041.61,373.61,1042.06z M373.18,1059.55h-2.33v-12h2.33V1059.55z"/>
				<path class="st1" d="M388.21,1059.33c0,2.25-0.43,4-1.29,5.26c-0.87,1.23-2.4,1.84-4.6,1.84c-1.71,0-3.1-0.49-4.19-1.46
					c-1.07-0.97-1.62-2.3-1.65-3.98h2.32c0,1.08,0.34,1.91,0.99,2.51c0.67,0.58,1.55,0.88,2.63,0.88c1.33,0,2.24-0.38,2.73-1.16
					c0.49-0.77,0.73-1.85,0.73-3.26v-2.29h-0.06c-0.48,0.73-1.08,1.29-1.79,1.69c-0.71,0.4-1.48,0.6-2.31,0.6
					c-1.8,0-3.21-0.62-4.25-1.87c-1.03-1.25-1.54-2.78-1.54-4.62c0-1.73,0.52-3.19,1.57-4.41c1.05-1.25,2.42-1.87,4.12-1.87
					c1.77,0,3.18,0.8,4.2,2.39h0.06v-2.04h2.33V1059.33z M382.09,1057.91c1.22,0,2.17-0.42,2.86-1.25c0.7-0.86,1.06-1.9,1.06-3.1
					c0-1.2-0.36-2.22-1.06-3.06c-0.68-0.83-1.64-1.26-2.86-1.26c-1.16,0-2.09,0.43-2.8,1.29c-0.69,0.84-1.04,1.84-1.04,3.02
					c0,1.21,0.35,2.23,1.04,3.07C380,1057.49,380.93,1057.91,382.09,1057.91z"/>
				<path class="st1" d="M393.56,1049.16h0.05c0.34-0.64,0.84-1.11,1.5-1.46c0.66-0.35,1.37-0.5,2.15-0.5
					c0.79,0,1.46,0.11,2.02,0.35c0.54,0.23,0.99,0.58,1.32,1.02c0.34,0.45,0.58,0.99,0.72,1.63c0.15,0.64,0.22,1.38,0.22,2.19v7.16
					h-2.33v-6.87c0-1.18-0.17-2.04-0.51-2.59c-0.35-0.57-1.06-0.85-2.14-0.85c-0.4,0-0.74,0.04-1.01,0.12
					c-0.28,0.07-0.52,0.18-0.73,0.33c-0.21,0.15-0.38,0.32-0.52,0.5c-0.13,0.19-0.27,0.39-0.38,0.63c-0.05,0.11-0.1,0.27-0.15,0.46
					c-0.04,0.18-0.07,0.38-0.11,0.57c-0.04,0.2-0.07,0.39-0.08,0.6c-0.02,0.2-0.03,0.35-0.03,0.47v1.12v5.52h-2.33v-12h2.33V1049.16
					z"/>
				<path class="st1" d="M412.04,1037.29h2.32v12.25h0.05c1.07-1.57,2.47-2.34,4.21-2.34c1.68,0,3.06,0.62,4.11,1.87
					c1.05,1.21,1.57,2.67,1.57,4.41c0,1.83-0.52,3.37-1.55,4.62c-1.04,1.25-2.45,1.87-4.24,1.87c-0.82,0-1.6-0.19-2.32-0.6
					c-0.71-0.4-1.31-0.96-1.79-1.69h-0.05v1.88h-2.32V1037.29z M418.06,1057.91c1.22,0,2.17-0.42,2.86-1.25
					c0.7-0.86,1.06-1.9,1.06-3.1c0-1.2-0.35-2.22-1.06-3.06c-0.69-0.83-1.64-1.26-2.86-1.26c-1.15,0-2.09,0.43-2.79,1.29
					c-0.69,0.84-1.04,1.84-1.04,3.02c0,1.21,0.35,2.23,1.04,3.07C415.97,1057.49,416.9,1057.91,418.06,1057.91z"/>
				<path class="st1" d="M424.64,1047.55h2.71l4.08,7.61l3.8-7.61h2.61l-9.8,18.88h-2.64l4.76-8.93L424.64,1047.55z"/>
				<path class="st1" d="M449.57,1054.69l-2.22,4.85h-2.61l9.3-20.15l9.31,20.15h-2.61l-2.23-4.85H449.57z M454.04,1044.67
					l-3.46,7.84h6.92L454.04,1044.67z"/>
				<path class="st1" d="M467.14,1059.55h-2.33v-22.26h2.33V1059.55z"/>
				<path class="st1" d="M472.87,1059.55h-2.32v-22.26h2.32V1059.55z"/>
				<path class="st1" d="M481.71,1050.37v1.92h-5.65v-1.92H481.71z"/>
				<path class="st1" d="M490.76,1039.62c-0.73-0.34-1.25-0.48-1.55-0.48c-0.5,0-0.87,0.14-1.09,0.47c-0.23,0.31-0.37,0.7-0.46,1.16
					c-0.05,0.35-0.08,0.61-0.1,0.82c-0.01,0.18-0.01,0.47-0.01,0.8v5.16h3.21v2.15h-3.21v9.84h-2.32v-9.84h-1.06v-2.15h1.06v-5.85
					c0-3.15,1.3-4.72,3.9-4.72c0.57,0,1.11,0.1,1.63,0.31V1039.62z"/>
				<path class="st1" d="M494.35,1049.5h0.07c0.3-0.72,0.73-1.29,1.3-1.69c0.57-0.43,1.24-0.61,2.01-0.61
					c0.64,0,1.28,0.19,1.92,0.58l-1.06,2.11c-0.37-0.33-0.86-0.48-1.42-0.48c-1.19,0-1.98,0.48-2.38,1.43
					c-0.17,0.45-0.3,0.9-0.35,1.33c-0.05,0.43-0.08,0.93-0.08,1.49v5.9h-2.32v-12h2.32V1049.5z"/>
				<path class="st1" d="M502.34,1053.94c0.04,1.07,0.37,2.01,1.03,2.8c0.68,0.79,1.54,1.17,2.61,1.17c0.85,0,1.54-0.19,2.08-0.58
					c0.54-0.39,1.05-0.97,1.54-1.75l1.96,1.1c-0.57,1.02-1.34,1.82-2.34,2.42c-0.99,0.58-2.07,0.86-3.27,0.86
					c-1.8,0-3.25-0.59-4.34-1.79c-1.06-1.23-1.6-2.72-1.6-4.52c0-1.88,0.51-3.45,1.53-4.66c0.99-1.21,2.44-1.79,4.36-1.79
					c1.87,0,3.28,0.58,4.22,1.79c0.97,1.19,1.44,2.73,1.44,4.59v0.36H502.34z M509.23,1052.2c-0.14-0.93-0.49-1.67-1.08-2.2
					c-0.58-0.54-1.33-0.81-2.26-0.81c-0.44,0-0.87,0.06-1.24,0.21c-0.39,0.16-0.73,0.37-1.04,0.63c-0.3,0.28-0.55,0.6-0.75,0.97
					c-0.19,0.38-0.33,0.77-0.4,1.2H509.23z"/>
				<path class="st1" d="M514.94,1053.94c0.04,1.07,0.38,2.01,1.04,2.8c0.67,0.79,1.53,1.17,2.6,1.17c0.85,0,1.54-0.19,2.08-0.58
					c0.54-0.39,1.06-0.97,1.54-1.75l1.96,1.1c-0.56,1.02-1.34,1.82-2.33,2.42c-0.99,0.58-2.09,0.86-3.27,0.86
					c-1.81,0-3.25-0.59-4.34-1.79c-1.07-1.23-1.6-2.72-1.6-4.52c0-1.88,0.51-3.45,1.53-4.66c1-1.21,2.45-1.79,4.37-1.79
					c1.85,0,3.26,0.58,4.2,1.79c0.97,1.19,1.44,2.73,1.44,4.59v0.36H514.94z M521.85,1052.2c-0.14-0.93-0.51-1.67-1.08-2.2
					c-0.58-0.54-1.34-0.81-2.25-0.81c-0.46,0-0.87,0.06-1.26,0.21c-0.39,0.16-0.74,0.37-1.03,0.63c-0.3,0.28-0.56,0.6-0.75,0.97
					c-0.2,0.38-0.33,0.77-0.4,1.2H521.85z"/>
				<path class="st1" d="M531.69,1050.37v1.92h-5.65v-1.92H531.69z"/>
				<path class="st1" d="M543.75,1057.67h-0.04c-0.49,0.73-1.08,1.29-1.8,1.69c-0.71,0.4-1.49,0.6-2.31,0.6
					c-1.8,0-3.21-0.62-4.24-1.87c-1.04-1.25-1.55-2.78-1.55-4.62c0-1.73,0.52-3.19,1.57-4.41c1.06-1.25,2.42-1.87,4.12-1.87
					c1.74,0,3.14,0.77,4.21,2.34h0.04v-12.25h2.32v22.26h-2.32V1057.67z M539.95,1057.91c1.23,0,2.19-0.42,2.88-1.25
					c0.7-0.86,1.06-1.9,1.06-3.1c0-1.2-0.36-2.22-1.06-3.06c-0.68-0.83-1.65-1.26-2.88-1.26c-1.14,0-2.08,0.43-2.78,1.29
					c-0.69,0.84-1.04,1.84-1.04,3.02c0,1.21,0.35,2.23,1.04,3.07C537.88,1057.49,538.81,1057.91,539.95,1057.91z"/>
				<path class="st1" d="M549.88,1049.03c1.26-1.22,2.79-1.83,4.61-1.83c1.8,0,3.34,0.61,4.57,1.83c1.26,1.23,1.89,2.75,1.89,4.55
					s-0.63,3.31-1.89,4.54c-1.23,1.23-2.76,1.84-4.57,1.84c-1.81,0-3.35-0.6-4.61-1.84c-1.23-1.23-1.85-2.74-1.85-4.54
					S548.64,1050.26,549.88,1049.03z M550.34,1053.58c0,1.11,0.41,2.09,1.22,2.95c0.79,0.82,1.77,1.23,2.92,1.23
					c1.13,0,2.11-0.41,2.92-1.23c0.82-0.86,1.22-1.84,1.22-2.95c0-1.13-0.4-2.11-1.22-2.95c-0.81-0.83-1.79-1.23-2.92-1.23
					c-1.15,0-2.13,0.4-2.92,1.23C550.75,1051.47,550.34,1052.45,550.34,1053.58z"/>
				<path class="st1" d="M567.19,1055.19l3.56-8.31l3.54,8.31l3.51-7.64h2.64l-6.15,12.41l-3.54-8.02l-3.56,8.02l-6.15-12.41h2.64
					L567.19,1055.19z"/>
				<path class="st1" d="M583.93,1049.16h0.05c0.34-0.64,0.85-1.11,1.51-1.46c0.64-0.35,1.37-0.5,2.14-0.5
					c0.8,0,1.47,0.11,2.01,0.35c0.55,0.23,1,0.58,1.33,1.02c0.35,0.45,0.59,0.99,0.73,1.63c0.15,0.64,0.21,1.38,0.21,2.19v7.16
					h-2.32v-6.87c0-1.18-0.16-2.04-0.51-2.59c-0.36-0.57-1.06-0.85-2.15-0.85c-0.4,0-0.73,0.04-1.01,0.12
					c-0.26,0.07-0.51,0.18-0.72,0.33c-0.21,0.15-0.39,0.32-0.52,0.5c-0.14,0.19-0.26,0.39-0.39,0.63c-0.04,0.11-0.09,0.27-0.13,0.46
					c-0.05,0.18-0.08,0.38-0.13,0.57c-0.03,0.2-0.05,0.39-0.08,0.6c-0.01,0.2-0.02,0.35-0.02,0.47v1.12v5.52h-2.33v-12h2.33V1049.16
					z"/>
				<path class="st1" d="M597.55,1059.55h-2.32v-22.26h2.32V1059.55z"/>
				<path class="st1" d="M601.63,1049.03c1.26-1.22,2.79-1.83,4.6-1.83c1.8,0,3.34,0.61,4.57,1.83c1.25,1.23,1.88,2.75,1.88,4.55
					s-0.63,3.31-1.88,4.54c-1.24,1.23-2.77,1.84-4.57,1.84c-1.81,0-3.34-0.6-4.6-1.84c-1.24-1.23-1.86-2.74-1.86-4.54
					S600.39,1050.26,601.63,1049.03z M602.1,1053.58c0,1.11,0.41,2.09,1.21,2.95c0.79,0.82,1.76,1.23,2.92,1.23
					c1.14,0,2.11-0.41,2.91-1.23c0.82-0.86,1.23-1.84,1.23-2.95c0-1.13-0.41-2.11-1.23-2.95c-0.8-0.83-1.77-1.23-2.91-1.23
					c-1.16,0-2.13,0.4-2.92,1.23C602.51,1051.47,602.1,1052.45,602.1,1053.58z"/>
				<path class="st1" d="M626.16,1059.55h-2.33v-1.88h-0.05c-1.03,1.53-2.4,2.29-4.11,2.29c-1.78,0-3.19-0.62-4.25-1.87
					c-1.03-1.25-1.53-2.78-1.53-4.62c0-1.73,0.52-3.19,1.57-4.41c1.05-1.25,2.43-1.87,4.13-1.87c1.73,0,3.13,0.77,4.19,2.34h0.05
					v-1.99h2.33V1059.55z M620.03,1057.91c1.22,0,2.18-0.42,2.87-1.25c0.7-0.86,1.05-1.9,1.05-3.1c0-1.2-0.35-2.22-1.05-3.06
					c-0.69-0.83-1.66-1.26-2.87-1.26c-1.15,0-2.09,0.43-2.79,1.29c-0.69,0.84-1.03,1.84-1.03,3.02c0,1.21,0.34,2.23,1.03,3.07
					C617.94,1057.49,618.88,1057.91,620.03,1057.91z"/>
				<path class="st1" d="M638.2,1057.67h-0.06c-0.48,0.73-1.08,1.29-1.8,1.69c-0.71,0.4-1.48,0.6-2.31,0.6
					c-1.79,0-3.2-0.62-4.24-1.87c-1.04-1.25-1.54-2.78-1.54-4.62c0-1.73,0.52-3.19,1.58-4.41c1.05-1.25,2.41-1.87,4.1-1.87
					c1.74,0,3.14,0.77,4.21,2.34h0.06v-12.25h2.32v22.26h-2.32V1057.67z M634.4,1057.91c1.22,0,2.18-0.42,2.86-1.25
					c0.71-0.86,1.05-1.9,1.05-3.1c0-1.2-0.35-2.22-1.05-3.06c-0.69-0.83-1.64-1.26-2.86-1.26c-1.16,0-2.08,0.43-2.8,1.29
					c-0.68,0.84-1.02,1.84-1.02,3.02c0,1.21,0.34,2.23,1.02,3.07C632.32,1057.49,633.24,1057.91,634.4,1057.91z"/>
				<path class="st1" d="M647.19,1058.47c0,0.41-0.14,0.77-0.43,1.05c-0.29,0.28-0.65,0.43-1.07,0.43c-0.41,0-0.78-0.15-1.06-0.43
					c-0.28-0.28-0.44-0.64-0.44-1.05c0-0.39,0.16-0.75,0.44-1.05c0.29-0.28,0.66-0.43,1.06-0.43c0.41,0,0.77,0.15,1.07,0.43
					C647.05,1057.73,647.19,1058.08,647.19,1058.47z"/>
				<path class="st1" d="M659.9,1050.96c-0.96-1.08-2.12-1.62-3.46-1.62c-1.12,0-2.07,0.43-2.86,1.27
					c-0.78,0.85-1.16,1.84-1.16,2.94c0,1.25,0.38,2.26,1.16,3.05c0.81,0.8,1.81,1.22,3.01,1.22c1.24,0,2.35-0.54,3.31-1.6v2.95
					c-1,0.54-2.11,0.79-3.33,0.79c-1.79,0-3.33-0.6-4.6-1.82c-1.26-1.2-1.88-2.69-1.88-4.49c0-1.84,0.62-3.38,1.88-4.62
					c1.26-1.22,2.82-1.83,4.72-1.83c1.25,0,2.32,0.26,3.21,0.79V1050.96z"/>
				<path class="st1" d="M663.19,1049.03c1.26-1.22,2.79-1.83,4.6-1.83c1.81,0,3.34,0.61,4.58,1.83c1.25,1.23,1.87,2.75,1.87,4.55
					s-0.62,3.31-1.87,4.54c-1.24,1.23-2.76,1.84-4.58,1.84c-1.81,0-3.34-0.6-4.6-1.84c-1.24-1.23-1.87-2.74-1.87-4.54
					S661.95,1050.26,663.19,1049.03z M663.65,1053.58c0,1.11,0.39,2.09,1.21,2.95c0.79,0.82,1.76,1.23,2.92,1.23
					c1.13,0,2.11-0.41,2.92-1.23c0.8-0.86,1.21-1.84,1.21-2.95c0-1.13-0.41-2.11-1.21-2.95c-0.81-0.83-1.79-1.23-2.92-1.23
					c-1.16,0-2.13,0.4-2.92,1.23C664.04,1051.47,663.65,1052.45,663.65,1053.58z"/>
				<path class="st1" d="M678.61,1049.07h0.06c0.33-0.56,0.79-1,1.38-1.36c0.57-0.34,1.18-0.51,1.82-0.51c1.51,0,2.67,0.7,3.49,2.12
					c0.37-0.65,0.9-1.17,1.56-1.55c0.65-0.38,1.39-0.57,2.15-0.57c2.68,0,4.01,1.72,4.01,5.18v7.17h-2.32v-6.8
					c0-0.3-0.02-0.62-0.04-0.91c-0.03-0.3-0.07-0.58-0.14-0.88c-0.07-0.27-0.17-0.53-0.32-0.78c-0.13-0.23-0.32-0.45-0.56-0.64
					c-0.31-0.2-0.71-0.3-1.19-0.3c-0.49,0-0.9,0.1-1.23,0.3c-0.33,0.2-0.59,0.44-0.77,0.71c-0.19,0.27-0.33,0.65-0.43,1.06
					c-0.09,0.42-0.17,0.81-0.19,1.16c-0.02,0.34-0.04,0.73-0.04,1.17v5.9h-2.33v-6.36c0-0.41,0-0.74-0.02-1.02
					c-0.02-0.29-0.07-0.62-0.15-1.04c-0.08-0.44-0.19-0.76-0.33-0.97c-0.14-0.24-0.35-0.45-0.64-0.64
					c-0.29-0.18-0.65-0.28-1.06-0.28c-1.19,0-1.95,0.52-2.3,1.54c-0.16,0.48-0.26,0.93-0.32,1.35c-0.04,0.43-0.07,0.94-0.07,1.51
					v5.9h-2.32v-12h2.32V1049.07z"/>
			</g>
			<g>
				<g>
					<path class="st1" d="M276.47,1052.48c10.97,0,21.94,0,32.91,0c1,0,1-1.54,0-1.54c-10.97,0-21.94,0-32.91,0
						C275.47,1050.94,275.47,1052.48,276.47,1052.48L276.47,1052.48z"/>
				</g>
				<g>
					<path class="st1" d="M714.37,1052.48c10.97,0,21.94,0,32.9,0c1.01,0,1.01-1.54,0-1.54c-10.97,0-21.94,0-32.9,0
						C713.38,1050.94,713.38,1052.48,714.37,1052.48L714.37,1052.48z"/>
				</g>
			</g>
		</g>
	</g>
</g>
<g id="Layer_3">
</g>
<g id="Layer_6">
</g>
<g id="Layer_4">
	<g>
		<defs>
			<rect id="SVGID_1_" x="-0.28" y="0.19" width="1024" height="1024"/>
		</defs>
		<clipPath id="SVGID_00000183221759930872962870000010804381552423240615_">
			<use xlink:href="#SVGID_1_"  style="overflow:visible;"/>
		</clipPath>
		
			<rect x="-0.28" y="0.19" style="clip-path:url(#SVGID_00000183221759930872962870000010804381552423240615_);fill:#FFCE5E;" width="1024" height="1024"/>
		<path style="opacity:0.3;clip-path:url(#SVGID_00000183221759930872962870000010804381552423240615_);fill:#FFB21E;" d="
			M1019.57,785.49c0-29.17-23.65-52.82-52.82-52.82c-14.73,0-28.05,6.04-37.63,15.77c-10.51-27.33-36.98-46.73-68.01-46.73
			c-14.07,0-27.2,4-38.34,10.91c-0.94-11.21-10.31-20.02-21.76-20.02c-2.29,0-4.49,0.35-6.56,1.01c-4-5.05-10.18-8.29-17.12-8.29
			c-4.11,0-7.94,1.16-11.22,3.13c-6.24-12.64-19.26-21.34-34.31-21.34c-21.12,0-38.25,17.12-38.25,38.25c0,4.54,0.8,8.9,2.25,12.94
			c-11.78,1.38-21.27,10.25-23.57,21.73c-5.78-2.39-12.11-3.71-18.75-3.71c-5.76,0-11.29,1-16.43,2.82
			c-11.11-27.29-37.89-46.54-69.17-46.54c-20.37,0-38.83,8.17-52.3,21.39c0.85-2.73,1.3-5.63,1.3-8.64
			c0-16.1-13.05-29.14-29.14-29.14c-1.31,0-2.6,0.1-3.86,0.26c0.13-1.59,0.22-3.19,0.22-4.82c0-31.69-25.69-57.37-57.37-57.37
			c-26.66,0-49.07,18.19-55.51,42.83c-4.53-1.78-9.46-2.76-14.61-2.76c-22.13,0-40.07,17.94-40.07,40.07c0,2.37,0.22,4.7,0.61,6.96
			c-6.2-4.05-13.51-6.54-21.37-6.91c0.47-2.98,0.72-6.04,0.72-9.16c0-32.19-26.1-58.29-58.29-58.29s-58.29,26.1-58.29,58.29
			c0,11.51,3.35,22.23,9.11,31.27v252.87h814.17V823.72C1013.27,814.1,1019.57,800.53,1019.57,785.49z M500.47,732.67l-0.95-0.68
			c1.24-0.55,2.44-1.19,3.59-1.9c-0.51,0.89-1,1.78-1.48,2.69L500.47,732.67z"/>
		<g style="clip-path:url(#SVGID_00000183221759930872962870000010804381552423240615_);">
			<path class="st5" d="M568.92,815.42c0-52.9-42.88-95.78-95.78-95.78c-26.92,0-51.25,11.11-68.65,29
				c-9.74-10.29-23.51-16.72-38.79-16.72c-0.67,0-1.33,0.03-1.99,0.05c0.09-1.23,0.15-2.48,0.15-3.73
				c0-27.8-22.54-50.34-50.34-50.34c-20.88,0-38.79,12.71-46.42,30.82c-13.02-7.12-27.95-11.17-43.84-11.17
				c-9.16,0-18,1.35-26.34,3.86c-6.07-17.95-23.04-30.87-43.03-30.87c-17.87,0-33.32,10.32-40.74,25.32
				c-3.57-1.29-7.43-1.99-11.44-1.99c-4.2,0-8.23,0.77-11.94,2.18c-4.96-5.84-12.34-9.55-20.6-9.55
				c-14.92,0-27.01,12.09-27.01,27.01c0,3.26,0.58,6.38,1.63,9.27c-0.54-0.03-1.08-0.06-1.63-0.06c-12.68,0-23.16,9.37-24.91,21.57
				c-10.01,0.8-17.9,9.09-18.05,19.26c-2.78-0.6-5.65-0.93-8.61-0.93c-22.38,0-40.52,18.14-40.52,40.52s18.14,40.52,40.52,40.52
				c8.69,0,16.73-2.74,23.33-7.4v84.76h510.81v-24.88C551.29,879.12,568.92,849.33,568.92,815.42z"/>
			<path class="st6" d="M568.92,828.93c0-52.9-42.88-95.78-95.78-95.78c-26.92,0-51.25,11.11-68.65,29
				c-9.74-10.29-23.51-16.72-38.79-16.72c-0.67,0-1.33,0.03-1.99,0.05c0.09-1.23,0.15-2.48,0.15-3.73
				c0-27.8-22.54-50.34-50.34-50.34c-20.88,0-38.79,12.71-46.42,30.82c-13.02-7.12-27.95-11.17-43.84-11.17
				c-9.16,0-18,1.35-26.34,3.86c-6.07-17.95-23.04-30.87-43.03-30.87c-17.87,0-33.32,10.32-40.74,25.32
				c-3.57-1.29-7.43-1.99-11.44-1.99c-4.2,0-8.23,0.77-11.94,2.18C84.8,703.7,77.41,700,69.16,700c-14.92,0-27.01,12.09-27.01,27.01
				c0,3.26,0.58,6.38,1.63,9.27c-0.54-0.03-1.08-0.06-1.63-0.06c-12.68,0-23.16,9.37-24.91,21.57c-10.01,0.8-17.9,9.09-18.05,19.26
				c-2.78-0.6-5.65-0.93-8.61-0.93c-22.38,0-40.52,18.14-40.52,40.52s18.14,40.52,40.52,40.52c8.69,0,16.73-2.74,23.33-7.4v84.76
				h510.81v-24.88C551.29,892.63,568.92,862.83,568.92,828.93z"/>
		</g>
		<g style="clip-path:url(#SVGID_00000183221759930872962870000010804381552423240615_);">
			<path class="st5" d="M1064.88,803.35c0-34.39-27.88-62.26-62.26-62.26c-14.26,0-27.4,4.81-37.89,12.87
				c-15.42-31.29-47.63-52.82-84.87-52.82c-46.94,0-85.88,34.19-93.29,79.03c-5.6-1.73-11.55-2.67-17.73-2.67
				c-28.44,0-52.23,19.82-58.36,46.39c-4.05-1.87-8.55-2.92-13.3-2.92c-5.59,0-10.83,1.45-15.39,3.99
				c-1.24-12.79-12.02-22.78-25.14-22.78c-13.95,0-25.26,11.31-25.26,25.26v160.36h388.85V863.07
				C1046.04,855.47,1064.88,831.62,1064.88,803.35z"/>
			<path class="st7" d="M1066.05,812.75c0-34.39-27.88-62.26-62.26-62.26c-14.26,0-27.4,4.81-37.89,12.87
				c-15.42-31.29-47.63-52.82-84.87-52.82c-46.94,0-85.88,34.19-93.29,79.03c-5.6-1.73-11.55-2.67-17.73-2.67
				c-28.44,0-52.23,19.82-58.36,46.39c-4.05-1.87-8.55-2.92-13.3-2.92c-5.59,0-10.83,1.45-15.39,3.99
				c-1.24-12.79-12.02-22.78-25.14-22.78c-13.95,0-25.26,11.31-25.26,25.26v160.36h388.85V872.47
				C1047.21,864.87,1066.05,841.02,1066.05,812.75z"/>
		</g>
		<g style="clip-path:url(#SVGID_00000183221759930872962870000010804381552423240615_);">
			<path class="st8" d="M1025.22,923.24c-6.3-8.57-13.1-3.01-15.44-2.41c0.74-3.22,1.14-6.57,1.14-10.02
				c0-25.11-20.72-45.47-46.29-45.47c-4.47,0-8.79,0.64-12.88,1.8c2.34-6.58,3.63-13.64,3.63-21c0-35.16-29.01-63.66-64.8-63.66
				c-28.77,0-53.14,18.42-61.61,43.91c-5.41-2.25-11.36-3.49-17.6-3.49c-22.06,0-40.43,15.51-44.44,36.04
				c-5.62-2.38-11.8-3.7-18.31-3.7c-21.25,0-39.15,14.08-44.58,33.25c-3.58-4.26-9.01-6.98-15.08-6.98c-1.99,0-3.91,0.3-5.71,0.84
				c0.37-1.91,0.57-3.88,0.57-5.89c0-17.3-14.28-31.33-31.89-31.33c-6.34,0-12.25,1.83-17.21,4.96
				c-5.37-18.05-22.34-31.24-42.45-31.24c-7.15,0-13.9,1.68-19.88,4.64c0.21-1.86,0.34-3.74,0.34-5.65
				c0-27.35-22.57-49.51-50.4-49.51c-27.84,0-50.4,22.17-50.4,49.51c0,2.59,0.21,5.14,0.6,7.63c-2.55-0.36-5.15-0.55-7.8-0.55
				c-10.12,0-19.59,2.72-27.71,7.44c-14.87-32.95-48.45-55.94-87.5-55.94c-44.15,0-81.31,29.39-92.33,69.33
				c-6.2-6.59-15.07-10.72-24.93-10.72c-9.29,0-17.71,3.67-23.84,9.61c-1.8-17.88-17.15-31.84-35.82-31.84
				c-5.62,0-10.94,1.27-15.68,3.52c-7.62-16.38-24.44-27.78-43.98-27.78c-26.7,0-48.35,21.26-48.35,47.49
				c0,0.56,0.02,1.12,0.04,1.67c-3.04-0.43-6.14-0.66-9.3-0.66c-35.79,0-64.8,28.5-64.8,63.66c0,12.47,3.67,24.1,9.98,33.92v79.1
				l1024.56,0.68"/>
			<path class="st9" d="M1023.89,931.24c-6.3-8.57-13.1-3.01-15.44-2.41c0.74-3.22,1.14-6.57,1.14-10.02
				c0-25.11-20.72-45.47-46.29-45.47c-4.47,0-8.79,0.64-12.88,1.8c2.34-6.58,3.63-13.64,3.63-21c0-35.16-29.01-63.66-64.8-63.66
				c-28.77,0-53.14,18.42-61.61,43.91c-5.41-2.25-11.36-3.49-17.6-3.49c-22.06,0-40.43,15.51-44.44,36.04
				c-5.62-2.38-11.8-3.7-18.31-3.7c-21.25,0-39.15,14.08-44.58,33.25c-3.58-4.26-9.01-6.98-15.08-6.98c-1.99,0-3.91,0.3-5.71,0.84
				c0.37-1.91,0.57-3.88,0.57-5.89c0-17.3-14.28-31.33-31.89-31.33c-6.34,0-12.25,1.83-17.21,4.96
				c-5.37-18.05-22.34-31.24-42.45-31.24c-7.15,0-13.9,1.68-19.88,4.64c0.21-1.86,0.34-3.74,0.34-5.65
				c0-27.35-22.57-49.51-50.4-49.51c-27.84,0-50.4,22.17-50.4,49.51c0,2.59,0.21,5.14,0.6,7.63c-2.55-0.36-5.15-0.55-7.8-0.55
				c-10.12,0-19.59,2.72-27.71,7.44c-14.87-32.95-48.45-55.94-87.5-55.94c-44.15,0-81.31,29.39-92.33,69.33
				c-6.2-6.59-15.07-10.72-24.93-10.72c-9.29,0-17.71,3.67-23.84,9.61c-1.8-17.88-17.15-31.84-35.82-31.84
				c-5.62,0-10.94,1.27-15.68,3.52c-7.62-16.38-24.44-27.78-43.98-27.78c-26.7,0-48.35,21.26-48.35,47.49
				c0,0.56,0.02,1.12,0.04,1.67c-3.04-0.43-6.14-0.66-9.3-0.66c-35.79,0-64.8,28.5-64.8,63.66c0,12.47,3.67,24.1,9.98,33.92v79.1
				l1024.56,0.68"/>
		</g>
		<g style="clip-path:url(#SVGID_00000183221759930872962870000010804381552423240615_);">
			<path class="st10" d="M218.85,519.63c-2.98,0-2.98,4.63,0,4.63C221.82,524.26,221.83,519.63,218.85,519.63z"/>
			<path class="st10" d="M360.69,430.6c-2.98,0-2.98,4.63,0,4.63C363.67,435.22,363.67,430.6,360.69,430.6z"/>
			<path class="st10" d="M149.08,284.52c-2.98,0-2.98,4.63,0,4.63C152.06,289.14,152.06,284.52,149.08,284.52z"/>
			<path class="st10" d="M362.62,218.22c-2.98,0-2.98,4.63,0,4.63C365.6,222.85,365.6,218.22,362.62,218.22z"/>
			<path class="st10" d="M978.16,442.16c-2.98,0-2.98,4.63,0,4.63C981.14,446.79,981.14,442.16,978.16,442.16z"/>
			<path class="st10" d="M800.09,244.81c-2.98,0-2.98,4.63,0,4.63C803.06,249.44,803.07,244.81,800.09,244.81z"/>
			<path class="st10" d="M938.84,173.9c-2.98,0-2.98,4.63,0,4.63C941.82,178.52,941.82,173.9,938.84,173.9z"/>
			<path class="st10" d="M854.05,81.39c-2.98,0-2.98,4.63,0,4.63C857.03,86.02,857.03,81.39,854.05,81.39z"/>
			<path class="st10" d="M652.08,449.1c-2.98,0-2.98,4.63,0,4.63C655.06,453.72,655.06,449.1,652.08,449.1z"/>
			<path class="st10" d="M543.39,308.03c-2.98,0-2.98,4.63,0,4.63C546.36,312.65,546.37,308.03,543.39,308.03z"/>
			<path class="st10" d="M509.47,38.98c-2.98,0-2.98,4.63,0,4.63C512.44,43.6,512.45,38.98,509.47,38.98z"/>
			<path class="st10" d="M469.38,587.86c-2.98,0-2.98,4.63,0,4.63C472.36,592.48,472.36,587.86,469.38,587.86z"/>
			<path class="st10" d="M640.9,135.35c-2.98,0-2.98,4.63,0,4.63C643.88,139.98,643.88,135.35,640.9,135.35z"/>
			<path class="st10" d="M253.15,110.69c-2.98,0-2.98,4.63,0,4.63C256.13,115.31,256.13,110.69,253.15,110.69z"/>
		</g>
		<g style="clip-path:url(#SVGID_00000183221759930872962870000010804381552423240615_);">
			<path class="st10" d="M279.54,507.67c-4.39,0-4.4,6.82,0,6.82C283.93,514.49,283.94,507.67,279.54,507.67z"/>
			<path class="st9" d="M670.72,312.37c-4.39,0-4.4,6.82,0,6.82C675.11,319.19,675.11,312.37,670.72,312.37z"/>
			<path class="st10" d="M173.71,682.27c-2.98,0-2.98,4.63,0,4.63C176.69,686.9,176.69,682.27,173.71,682.27z"/>
			<path class="st9" d="M387.25,615.98c-2.98,0-2.98,4.63,0,4.63C390.22,620.6,390.23,615.98,387.25,615.98z"/>
			<path class="st10" d="M1002.79,839.92c-2.98,0-2.98,4.63,0,4.63C1005.77,844.54,1005.77,839.92,1002.79,839.92z"/>
			<path class="st9" d="M824.72,642.57c-2.98,0-2.98,4.63,0,4.63C827.69,647.19,827.7,642.57,824.72,642.57z"/>
			<path class="st9" d="M963.47,571.65c-2.98,0-2.98,4.63,0,4.63C966.45,576.28,966.45,571.65,963.47,571.65z"/>
			<path class="st9" d="M878.68,479.14c-2.98,0-2.98,4.63,0,4.63C881.66,483.77,881.66,479.14,878.68,479.14z"/>
			<path class="st9" d="M918.43,403.66c-4.39,0-4.4,6.82,0,6.82C922.82,410.48,922.83,403.66,918.43,403.66z"/>
			<path class="st9" d="M568.02,705.78c-2.98,0-2.98,4.63,0,4.63C570.99,710.41,571,705.78,568.02,705.78z"/>
			<path class="st9" d="M534.1,436.73c-2.98,0-2.98,4.63,0,4.63C537.07,441.36,537.08,436.73,534.1,436.73z"/>
			<path class="st9" d="M649.01,608.28c-4.39,0-4.4,6.82,0,6.82C653.4,615.1,653.4,608.28,649.01,608.28z"/>
			<path class="st9" d="M665.53,533.11c-2.98,0-2.98,4.63,0,4.63C668.51,537.73,668.51,533.11,665.53,533.11z"/>
			<path class="st10" d="M277.78,508.44c-2.98,0-2.98,4.63,0,4.63C280.76,513.07,280.76,508.44,277.78,508.44z"/>
		</g>
		<g style="clip-path:url(#SVGID_00000183221759930872962870000010804381552423240615_);">
			<path class="st10" d="M98.98,174.1c-3.36,0-3.37,5.23,0,5.23C102.35,179.32,102.35,174.1,98.98,174.1z"/>
			<path class="st9" d="M398.69,24.46c-3.36,0-3.37,5.23,0,5.23C402.05,29.69,402.06,24.46,398.69,24.46z"/>
			<path class="st10" d="M17.9,307.87c-2.28,0-2.28,3.54,0,3.54C20.18,311.41,20.18,307.87,17.9,307.87z"/>
			<path class="st9" d="M181.5,257.08c-2.28,0-2.28,3.54,0,3.54C183.78,260.62,183.79,257.08,181.5,257.08z"/>
			<path class="st10" d="M653.11,428.65c-2.28,0-2.28,3.54,0,3.54C655.39,432.19,655.4,428.65,653.11,428.65z"/>
			<path class="st9" d="M516.68,277.45c-2.28,0-2.28,3.54,0,3.54C518.96,280.99,518.96,277.45,516.68,277.45z"/>
			<path class="st9" d="M622.99,223.11c-2.28,0-2.28,3.54,0,3.54C625.27,226.66,625.27,223.11,622.99,223.11z"/>
			<path class="st9" d="M558.02,152.24c-2.28,0-2.28,3.54,0,3.54C560.3,155.78,560.31,152.24,558.02,152.24z"/>
			<path class="st9" d="M588.48,94.4c-3.36,0-3.37,5.23,0,5.23C591.84,99.63,591.84,94.4,588.48,94.4z"/>
			<path class="st9" d="M320,325.88c-2.28,0-2.28,3.54,0,3.54C322.28,329.42,322.29,325.88,320,325.88z"/>
			<path class="st9" d="M294.01,119.75c-2.28,0-2.28,3.54,0,3.54C296.29,123.29,296.3,119.75,294.01,119.75z"/>
			<path class="st9" d="M382.05,251.18c-3.36,0-3.37,5.23,0,5.23C385.42,256.4,385.42,251.18,382.05,251.18z"/>
			<path class="st9" d="M394.72,193.58c-2.28,0-2.28,3.54,0,3.54C397,197.13,397,193.58,394.72,193.58z"/>
			<path class="st10" d="M97.63,174.68c-2.28,0-2.28,3.54,0,3.54C99.91,178.23,99.92,174.68,97.63,174.68z"/>
		</g>
		<g style="clip-path:url(#SVGID_00000183221759930872962870000010804381552423240615_);">
			<path class="st10" d="M13.25,532.11c-2.74,0-2.74,4.25,0,4.25C15.99,536.36,15.99,532.11,13.25,532.11z"/>
			<path class="st9" d="M257.22,410.3c-2.74,0-2.74,4.25,0,4.25C259.95,414.56,259.96,410.3,257.22,410.3z"/>
			<path class="st10" d="M45.72,650.31c-1.86,0-1.86,2.88,0,2.88C47.57,653.19,47.58,650.31,45.72,650.31z"/>
			<path class="st9" d="M80.42,599.66c-1.86,0-1.86,2.88,0,2.88C82.28,602.54,82.28,599.66,80.42,599.66z"/>
			<path class="st10" d="M464.32,739.32c-1.86,0-1.86,2.88,0,2.88C466.18,742.21,466.18,739.32,464.32,739.32z"/>
			<path class="st9" d="M353.26,616.24c-1.86,0-1.86,2.88,0,2.88C355.12,619.13,355.12,616.24,353.26,616.24z"/>
			<path class="st9" d="M439.8,572.01c-1.86,0-1.86,2.88,0,2.88C441.66,574.9,441.66,572.01,439.8,572.01z"/>
			<path class="st9" d="M386.92,514.32c-1.86,0-1.86,2.88,0,2.88C388.78,517.2,388.78,514.32,386.92,514.32z"/>
			<path class="st9" d="M411.71,467.24c-2.74,0-2.74,4.25,0,4.25C414.45,471.49,414.45,467.24,411.71,467.24z"/>
			<path class="st9" d="M193.16,655.67c-1.86,0-1.86,2.88,0,2.88C195.02,658.55,195.02,655.67,193.16,655.67z"/>
			<path class="st9" d="M172.01,487.87c-1.86,0-1.86,2.88,0,2.88C173.87,490.75,173.87,487.87,172.01,487.87z"/>
			<path class="st9" d="M243.68,594.86c-2.74,0-2.74,4.25,0,4.25C246.41,599.11,246.42,594.86,243.68,594.86z"/>
			<path class="st9" d="M253.98,547.97c-1.86,0-1.86,2.88,0,2.88C255.84,550.86,255.84,547.97,253.98,547.97z"/>
			<path class="st10" d="M12.15,532.59c-1.86,0-1.86,2.88,0,2.88C14.01,535.47,14.01,532.59,12.15,532.59z"/>
		</g>
		<g style="clip-path:url(#SVGID_00000183221759930872962870000010804381552423240615_);">
			<path class="st10" d="M549.54,215.76c-2.74,0-2.74,4.25,0,4.25C552.28,220.01,552.29,215.76,549.54,215.76z"/>
			<path class="st9" d="M793.51,93.96c-2.74,0-2.74,4.25,0,4.25C796.25,98.21,796.25,93.96,793.51,93.96z"/>
			<path class="st10" d="M582.01,333.96c-1.86,0-1.86,2.88,0,2.88C583.87,336.84,583.87,333.96,582.01,333.96z"/>
			<path class="st9" d="M616.72,283.31c-1.86,0-1.86,2.88,0,2.88C618.57,286.19,618.58,283.31,616.72,283.31z"/>
			<path class="st10" d="M1000.62,422.97c-1.86,0-1.86,2.88,0,2.88C1002.47,425.86,1002.48,422.97,1000.62,422.97z"/>
			<path class="st9" d="M889.56,299.89c-1.86,0-1.86,2.88,0,2.88C891.41,302.78,891.42,299.89,889.56,299.89z"/>
			<path class="st9" d="M976.1,255.66c-1.86,0-1.86,2.88,0,2.88C977.95,258.55,977.95,255.66,976.1,255.66z"/>
			<path class="st9" d="M923.21,197.97c-1.86,0-1.86,2.88,0,2.88C925.07,200.85,925.07,197.97,923.21,197.97z"/>
			<path class="st9" d="M948,150.89c-2.74,0-2.74,4.25,0,4.25C950.74,155.14,950.75,150.89,948,150.89z"/>
			<path class="st9" d="M729.46,339.32c-1.86,0-1.86,2.88,0,2.88C731.31,342.2,731.32,339.32,729.46,339.32z"/>
			<path class="st9" d="M708.3,171.52c-1.86,0-1.86,2.88,0,2.88C710.16,174.4,710.16,171.52,708.3,171.52z"/>
			<path class="st9" d="M779.97,278.51c-2.74,0-2.74,4.25,0,4.25C782.71,282.76,782.71,278.51,779.97,278.51z"/>
			<path class="st9" d="M790.28,231.62c-1.86,0-1.86,2.88,0,2.88C792.13,234.51,792.14,231.62,790.28,231.62z"/>
			<path class="st10" d="M548.45,216.24c-1.86,0-1.86,2.88,0,2.88C550.3,219.12,550.3,216.24,548.45,216.24z"/>
		</g>
		<g style="clip-path:url(#SVGID_00000183221759930872962870000010804381552423240615_);">
			<path class="st10" d="M504.7,642.18c-2.74,0-2.74,4.25,0,4.25C507.44,646.43,507.45,642.18,504.7,642.18z"/>
			<path class="st9" d="M748.67,520.37c-2.74,0-2.74,4.25,0,4.25C751.41,524.63,751.41,520.37,748.67,520.37z"/>
			<path class="st10" d="M537.17,760.37c-1.86,0-1.86,2.88,0,2.88C539.03,763.26,539.03,760.37,537.17,760.37z"/>
			<path class="st9" d="M291.72,763.31c-1.86,0-1.86,2.88,0,2.88C293.57,766.19,293.58,763.31,291.72,763.31z"/>
			<path class="st10" d="M955.78,849.39c-1.86,0-1.86,2.88,0,2.88C957.63,852.27,957.64,849.39,955.78,849.39z"/>
			<path class="st9" d="M844.72,726.31c-1.86,0-1.86,2.88,0,2.88C846.57,729.19,846.58,726.31,844.72,726.31z"/>
			<path class="st9" d="M931.26,682.08c-1.86,0-1.86,2.88,0,2.88C933.11,684.96,933.11,682.08,931.26,682.08z"/>
			<path class="st9" d="M878.37,624.38c-1.86,0-1.86,2.88,0,2.88C880.23,627.27,880.23,624.38,878.37,624.38z"/>
			<path class="st9" d="M903.16,577.3c-2.74,0-2.74,4.25,0,4.25C905.9,581.56,905.91,577.3,903.16,577.3z"/>
			<path class="st9" d="M684.62,765.73c-1.86,0-1.86,2.88,0,2.88C686.47,768.62,686.48,765.73,684.62,765.73z"/>
			<path class="st9" d="M557.72,540.19c-1.86,0-1.86,2.88,0,2.88C559.57,543.08,559.58,540.19,557.72,540.19z"/>
			<path class="st9" d="M735.13,704.92c-2.74,0-2.74,4.25,0,4.25C737.87,709.18,737.87,704.92,735.13,704.92z"/>
			<path class="st9" d="M745.44,658.04c-1.86,0-1.86,2.88,0,2.88C747.29,660.93,747.3,658.04,745.44,658.04z"/>
			<path class="st10" d="M503.61,642.66c-1.86,0-1.86,2.88,0,2.88C505.46,645.54,505.46,642.66,503.61,642.66z"/>
		</g>
		<g style="clip-path:url(#SVGID_00000183221759930872962870000010804381552423240615_);">
			<g class="st11">
				<g>
					<path class="st12" d="M164,469.67c-18.42,0-35.28-11.42-40.59-27.02c-7.03,3.57-15.06,5.51-22.95,5.51
						c-8.1,0-15.85-2.01-22.41-5.81c-15.12-8.76-23.3-27.44-19.02-43.47c3.85-14.41,17.91-25.28,32.72-25.28
						c1.31,0,2.62,0.09,3.91,0.26c0.01-0.47,0.04-0.95,0.07-1.44c-0.5-2.26-0.74-4.54-0.7-6.78c0.38-20.43,21.93-36.43,49.05-36.43
						c0.42,0,0.84,0,1.27,0.01c15.15,0.29,29.2,5.71,38.41,14.67c4.01-7.29,12.43-11.62,22.72-11.62c6.15,0,12.54,1.56,18.49,4.51
						c13.53,6.71,21.96,19.33,20.91,30.8c4.05,0.87,7.9,2.26,11.49,4.14c2.49,0.84,4.77,2.31,6.76,4.38
						c9.39,7.4,14.94,18.18,15.23,29.59c0.56,22.21-18.56,40.78-42.62,41.39c-0.41,0.01-0.81,0.02-1.21,0.02
						c-8.67,0-16.94-2.32-24.09-6.72c-10.24,16.22-25.93,26.99-42.42,28.99C167.38,469.57,165.69,469.67,164,469.67z"/>
				</g>
			</g>
			<g>
				<g>
					<path class="st9" d="M161.28,472.12c-18.42,0-35.28-11.42-40.59-27.02c-7.03,3.57-15.06,5.51-22.95,5.51
						c-8.1,0-15.85-2.01-22.41-5.81c-15.12-8.76-23.3-27.44-19.02-43.47c3.85-14.41,17.91-25.28,32.72-25.28
						c1.31,0,2.62,0.09,3.91,0.26c0.01-0.47,0.04-0.95,0.07-1.44c-0.5-2.26-0.74-4.54-0.7-6.78c0.38-20.43,21.93-36.43,49.05-36.43
						c0.42,0,0.84,0,1.27,0.01c15.15,0.29,29.2,5.71,38.41,14.67c4.01-7.29,12.43-11.62,22.72-11.62c6.15,0,12.54,1.56,18.49,4.51
						c13.53,6.71,21.96,19.33,20.91,30.8c4.05,0.87,7.9,2.26,11.49,4.14c2.49,0.84,4.77,2.31,6.76,4.38
						c9.39,7.4,14.94,18.18,15.23,29.59c0.56,22.21-18.56,40.78-42.62,41.39c-0.41,0.01-0.81,0.02-1.21,0.02
						c-8.67,0-16.94-2.32-24.09-6.72c-10.24,16.22-25.93,26.99-42.42,28.99C164.66,472.02,162.97,472.12,161.28,472.12z"/>
				</g>
			</g>
		</g>
		<g style="clip-path:url(#SVGID_00000183221759930872962870000010804381552423240615_);">
			<g class="st11">
				<g>
					<path class="st12" d="M444.76,228.49c-12.28,0-23.53-7.62-27.08-18.02c-4.69,2.38-10.05,3.67-15.31,3.67
						c-5.4,0-10.57-1.34-14.95-3.88c-10.08-5.84-15.54-18.3-12.68-28.99c2.57-9.61,11.95-16.86,21.82-16.86
						c0.88,0,1.75,0.06,2.61,0.18c0.01-0.32,0.02-0.64,0.05-0.96c-0.34-1.5-0.49-3.03-0.46-4.52c0.26-13.62,14.63-24.3,32.72-24.3
						c0.28,0,0.56,0,0.85,0.01c10.1,0.19,19.48,3.81,25.62,9.78c2.67-4.86,8.29-7.75,15.16-7.75c4.1,0,8.37,1.04,12.33,3
						c9.03,4.47,14.65,12.9,13.95,20.54c2.7,0.58,5.27,1.51,7.66,2.76c1.66,0.56,3.18,1.54,4.51,2.92
						c6.26,4.94,9.96,12.13,10.15,19.74c0.37,14.82-12.38,27.2-28.43,27.6c-0.27,0.01-0.54,0.01-0.81,0.01
						c-5.78,0-11.3-1.54-16.06-4.48c-6.83,10.82-17.3,18-28.29,19.33C447.01,228.42,445.89,228.49,444.76,228.49z"/>
				</g>
			</g>
			<g>
				<g>
					<path class="st9" d="M442.95,230.12c-12.28,0-23.53-7.62-27.08-18.02c-4.69,2.38-10.05,3.67-15.31,3.67
						c-5.4,0-10.57-1.34-14.95-3.88c-10.08-5.84-15.54-18.3-12.68-28.99c2.57-9.61,11.95-16.86,21.82-16.86
						c0.88,0,1.75,0.06,2.61,0.18c0.01-0.32,0.02-0.64,0.05-0.96c-0.34-1.5-0.49-3.03-0.46-4.52c0.26-13.62,14.63-24.3,32.72-24.3
						c0.28,0,0.56,0,0.85,0.01c10.1,0.19,19.48,3.81,25.62,9.78c2.67-4.86,8.29-7.75,15.16-7.75c4.1,0,8.37,1.04,12.33,3
						c9.03,4.47,14.65,12.9,13.95,20.54c2.7,0.58,5.27,1.51,7.66,2.76c1.66,0.56,3.18,1.54,4.51,2.92
						c6.26,4.94,9.96,12.13,10.15,19.74c0.37,14.82-12.38,27.2-28.43,27.6c-0.27,0.01-0.54,0.01-0.81,0.01
						c-5.78,0-11.3-1.54-16.06-4.48c-6.83,10.82-17.3,18-28.29,19.33C445.2,230.05,444.07,230.12,442.95,230.12z"/>
				</g>
			</g>
		</g>
		<g style="clip-path:url(#SVGID_00000183221759930872962870000010804381552423240615_);">
			<g class="st11">
				<g>
					<path class="st12" d="M952.6,284.93c-16.49,0-31.58-10.23-36.34-24.19c-6.29,3.19-13.48,4.93-20.54,4.93
						c-7.25,0-14.19-1.8-20.07-5.2c-13.54-7.84-20.86-24.57-17.03-38.91c3.45-12.9,16.04-22.63,29.29-22.63
						c1.18,0,2.35,0.08,3.5,0.24c0.01-0.42,0.03-0.85,0.06-1.29c-0.45-2.02-0.66-4.06-0.62-6.07c0.34-18.29,19.63-32.61,43.92-32.61
						c0.38,0,0.76,0,1.14,0.01c13.56,0.26,26.15,5.11,34.39,13.13c3.59-6.53,11.13-10.4,20.34-10.4c5.51,0,11.23,1.39,16.55,4.03
						c12.12,6.01,19.66,17.31,18.72,27.58c3.62,0.78,7.07,2.02,10.28,3.71c2.23,0.75,4.27,2.07,6.06,3.92
						c8.41,6.63,13.37,16.28,13.63,26.49c0.5,19.89-16.62,36.51-38.16,37.05c-0.36,0.01-0.73,0.01-1.09,0.01
						c-7.76,0-15.17-2.07-21.56-6.02c-9.16,14.52-23.22,24.16-37.98,25.95C955.63,284.84,954.11,284.93,952.6,284.93z"/>
				</g>
			</g>
			<g>
				<g>
					<path class="st9" d="M950.17,287.12c-16.49,0-31.58-10.23-36.34-24.19c-6.29,3.19-13.48,4.93-20.54,4.93
						c-7.25,0-14.19-1.8-20.07-5.2c-13.54-7.84-20.86-24.57-17.03-38.91c3.45-12.9,16.04-22.63,29.29-22.63
						c1.18,0,2.35,0.08,3.5,0.24c0.01-0.42,0.03-0.85,0.06-1.29c-0.45-2.02-0.66-4.06-0.62-6.07c0.34-18.29,19.63-32.61,43.92-32.61
						c0.38,0,0.76,0,1.14,0.01c13.56,0.26,26.15,5.11,34.39,13.13c3.59-6.53,11.13-10.4,20.34-10.4c5.51,0,11.23,1.39,16.55,4.03
						c12.12,6.01,19.66,17.31,18.72,27.58c3.62,0.78,7.07,2.02,10.28,3.71c2.23,0.75,4.27,2.07,6.06,3.92
						c8.41,6.63,13.37,16.28,13.63,26.49c0.5,19.89-16.62,36.51-38.16,37.05c-0.36,0.01-0.73,0.01-1.09,0.01
						c-7.76,0-15.17-2.07-21.56-6.02c-9.16,14.52-23.22,24.16-37.98,25.95C953.19,287.03,951.68,287.12,950.17,287.12z"/>
				</g>
			</g>
		</g>
		<g style="clip-path:url(#SVGID_00000183221759930872962870000010804381552423240615_);">
			<g class="st11">
				<g>
					<path class="st12" d="M706.01,442.82c-10.29,0-19.72-6.38-22.69-15.11c-3.93,1.99-8.42,3.08-12.83,3.08
						c-4.53,0-8.86-1.12-12.53-3.25c-8.45-4.89-13.02-15.34-10.63-24.3c2.15-8.06,10.01-14.13,18.29-14.13
						c0.73,0,1.46,0.05,2.18,0.15c0.01-0.27,0.02-0.53,0.04-0.8c-0.28-1.26-0.41-2.54-0.39-3.79c0.21-11.42,12.26-20.36,27.42-20.36
						c0.24,0,0.47,0,0.71,0.01c8.47,0.16,16.32,3.19,21.47,8.2c2.24-4.08,6.95-6.5,12.7-6.5c3.44,0,7.01,0.87,10.34,2.52
						c7.57,3.75,12.28,10.81,11.69,17.22c2.26,0.49,4.42,1.26,6.42,2.32c1.39,0.47,2.66,1.29,3.78,2.45
						c5.25,4.14,8.35,10.16,8.51,16.54c0.31,12.42-10.38,22.79-23.83,23.13c-0.23,0.01-0.45,0.01-0.68,0.01
						c-4.85,0-9.47-1.29-13.46-3.76c-5.72,9.06-14.5,15.09-23.71,16.2C707.9,442.77,706.95,442.82,706.01,442.82z"/>
				</g>
			</g>
			<g>
				<g>
					<path class="st9" d="M704.49,444.19c-10.29,0-19.72-6.38-22.69-15.11c-3.93,1.99-8.42,3.08-12.83,3.08
						c-4.53,0-8.86-1.12-12.53-3.25c-8.45-4.89-13.02-15.34-10.63-24.3c2.15-8.06,10.01-14.13,18.29-14.13
						c0.73,0,1.46,0.05,2.18,0.15c0.01-0.27,0.02-0.53,0.04-0.8c-0.28-1.26-0.41-2.54-0.39-3.79c0.21-11.42,12.26-20.36,27.42-20.36
						c0.24,0,0.47,0,0.71,0.01c8.47,0.16,16.32,3.19,21.47,8.2c2.24-4.08,6.95-6.5,12.7-6.5c3.44,0,7.01,0.87,10.34,2.52
						c7.57,3.75,12.28,10.81,11.69,17.22c2.26,0.49,4.42,1.26,6.42,2.32c1.39,0.47,2.66,1.29,3.78,2.45
						c5.25,4.14,8.35,10.16,8.51,16.54c0.31,12.42-10.38,22.79-23.83,23.13c-0.23,0.01-0.45,0.01-0.68,0.01
						c-4.85,0-9.47-1.29-13.46-3.76c-5.72,9.06-14.5,15.09-23.71,16.2C706.38,444.14,705.43,444.19,704.49,444.19z"/>
				</g>
			</g>
		</g>
		<g style="clip-path:url(#SVGID_00000183221759930872962870000010804381552423240615_);">
			<g class="st11">
				<g>
					<path class="st12" d="M25.01,290.04c-8.09,0-15.51-5.02-17.84-11.88c-3.09,1.57-6.62,2.42-10.09,2.42
						c-3.56,0-6.97-0.88-9.85-2.55c-6.65-3.85-10.24-12.06-8.36-19.1c1.69-6.33,7.87-11.11,14.38-11.11c0.58,0,1.15,0.04,1.72,0.12
						c0.01-0.21,0.02-0.42,0.03-0.63c-0.22-0.99-0.32-1.99-0.31-2.98c0.17-8.98,9.64-16.01,21.56-16.01c0.19,0,0.37,0,0.56,0.01
						c6.66,0.13,12.84,2.51,16.88,6.45c1.76-3.21,5.46-5.11,9.99-5.11c2.7,0,5.51,0.68,8.13,1.98c5.95,2.95,9.65,8.5,9.19,13.54
						c1.78,0.38,3.47,0.99,5.05,1.82c1.1,0.37,2.09,1.01,2.97,1.93c4.13,3.25,6.57,7.99,6.69,13.01
						c0.25,9.76-8.16,17.92-18.73,18.19c-0.18,0-0.36,0.01-0.53,0.01c-3.81,0-7.45-1.02-10.59-2.95
						c-4.5,7.13-11.4,11.86-18.64,12.74C26.49,290,25.75,290.04,25.01,290.04z"/>
				</g>
			</g>
			<g>
				<g>
					<path class="st9" d="M23.81,291.12c-8.09,0-15.51-5.02-17.84-11.88c-3.09,1.57-6.62,2.42-10.09,2.42
						c-3.56,0-6.97-0.88-9.85-2.55c-6.65-3.85-10.24-12.06-8.36-19.1c1.69-6.33,7.87-11.11,14.38-11.11c0.58,0,1.15,0.04,1.72,0.12
						c0.01-0.21,0.02-0.42,0.03-0.63c-0.22-0.99-0.32-1.99-0.31-2.98c0.17-8.98,9.64-16.01,21.56-16.01c0.19,0,0.37,0,0.56,0.01
						c6.66,0.13,12.84,2.51,16.88,6.45c1.76-3.21,5.46-5.11,9.99-5.11c2.7,0,5.51,0.68,8.13,1.98c5.95,2.95,9.65,8.5,9.19,13.54
						c1.78,0.38,3.47,0.99,5.05,1.82c1.1,0.37,2.09,1.01,2.97,1.93c4.13,3.25,6.57,7.99,6.69,13.01
						c0.25,9.76-8.16,17.92-18.73,18.19c-0.18,0-0.36,0.01-0.53,0.01c-3.81,0-7.45-1.02-10.59-2.95
						c-4.5,7.13-11.4,11.86-18.64,12.74C25.3,291.08,24.55,291.12,23.81,291.12z"/>
				</g>
			</g>
		</g>
		<g style="opacity:0.3;clip-path:url(#SVGID_00000183221759930872962870000010804381552423240615_);">
			<path class="st9" d="M886.5,377.16c-7.7,0-14.76-4.78-16.98-11.31c-2.94,1.49-6.3,2.31-9.6,2.31c-3.39,0-6.63-0.84-9.38-2.43
				c-6.33-3.66-9.75-11.48-7.96-18.19c1.61-6.03,7.5-10.58,13.69-10.58c0.55,0,1.1,0.04,1.63,0.11c0.01-0.2,0.02-0.4,0.03-0.6
				c-0.21-0.94-0.31-1.9-0.29-2.84c0.16-8.55,9.18-15.24,20.52-15.24c0.18,0,0.35,0,0.53,0c6.34,0.12,12.22,2.39,16.07,6.14
				c1.68-3.05,5.2-4.86,9.51-4.86c2.57,0,5.25,0.65,7.74,1.89c5.66,2.81,9.19,8.09,8.75,12.89c1.69,0.37,3.31,0.95,4.81,1.73
				c1.04,0.35,1.99,0.97,2.83,1.83c3.93,3.1,6.25,7.61,6.37,12.38c0.23,9.29-7.77,17.06-17.83,17.31c-0.17,0-0.34,0.01-0.51,0.01
				c-3.63,0-7.09-0.97-10.08-2.81c-4.28,6.78-10.85,11.29-17.75,12.13C887.91,377.12,887.2,377.16,886.5,377.16z"/>
		</g>
		<g style="opacity:0.3;clip-path:url(#SVGID_00000183221759930872962870000010804381552423240615_);">
			<path class="st9" d="M55.42,200.95c-11.79,0-22.59-7.31-25.99-17.3c-4.5,2.28-9.64,3.53-14.69,3.53
				c-5.19,0-10.15-1.29-14.35-3.72c-9.68-5.61-14.91-17.57-12.18-27.83c2.46-9.23,11.47-16.18,20.95-16.18
				c0.84,0,1.68,0.06,2.5,0.17c0.01-0.3,0.02-0.61,0.04-0.92c-0.32-1.44-0.47-2.9-0.45-4.34c0.25-13.08,14.04-23.32,31.4-23.32
				c0.27,0,0.54,0,0.81,0.01c9.7,0.18,18.7,3.65,24.59,9.39c2.57-4.67,7.96-7.44,14.55-7.44c3.94,0,8.03,1,11.84,2.88
				c8.66,4.3,14.06,12.38,13.39,19.72c2.59,0.56,5.06,1.45,7.35,2.65c1.6,0.53,3.05,1.48,4.33,2.81c6.01,4.74,9.56,11.64,9.75,18.94
				c0.36,14.22-11.88,26.11-27.29,26.49c-0.26,0.01-0.52,0.01-0.78,0.01c-5.55,0-10.85-1.48-15.42-4.3
				c-6.55,10.38-16.6,17.28-27.16,18.56C57.58,200.89,56.5,200.95,55.42,200.95z"/>
		</g>
		<g style="opacity:0.3;clip-path:url(#SVGID_00000183221759930872962870000010804381552423240615_);">
			<path class="st9" d="M431.8,396.69c-8.44,0-16.17-5.24-18.61-12.39c-3.22,1.64-6.9,2.53-10.52,2.53c-3.71,0-7.27-0.92-10.27-2.66
				c-6.93-4.01-10.68-12.58-8.72-19.92c1.76-6.61,8.21-11.59,15-11.59c0.6,0,1.2,0.04,1.79,0.12c0.01-0.22,0.02-0.44,0.03-0.66
				c-0.23-1.03-0.34-2.08-0.32-3.11c0.18-9.36,10.05-16.7,22.49-16.7c0.19,0,0.39,0,0.58,0.01c6.94,0.13,13.39,2.62,17.61,6.72
				c1.84-3.34,5.7-5.33,10.42-5.33c2.82,0,5.75,0.71,8.48,2.07c6.2,3.08,10.07,8.86,9.59,14.12c1.85,0.4,3.62,1.04,5.27,1.9
				c1.14,0.38,2.18,1.06,3.1,2.01c4.3,3.39,6.85,8.33,6.98,13.57c0.26,10.18-8.51,18.69-19.54,18.97c-0.19,0-0.37,0.01-0.56,0.01
				c-3.97,0-7.77-1.06-11.04-3.08c-4.69,7.43-11.89,12.37-19.45,13.29C433.35,396.65,432.57,396.69,431.8,396.69z"/>
		</g>
		<g style="opacity:0.3;clip-path:url(#SVGID_00000183221759930872962870000010804381552423240615_);">
			<path class="st9" d="M654.9,209.72c-5.36,0-10.28-3.33-11.82-7.87c-2.05,1.04-4.39,1.6-6.68,1.6c-2.36,0-4.62-0.59-6.53-1.69
				c-4.4-2.55-6.79-7.99-5.54-12.66c1.12-4.2,5.22-7.36,9.53-7.36c0.38,0,0.76,0.03,1.14,0.08c0-0.14,0.01-0.28,0.02-0.42
				c-0.15-0.66-0.21-1.32-0.2-1.98c0.11-5.95,6.39-10.61,14.29-10.61c0.12,0,0.25,0,0.37,0c4.41,0.08,8.51,1.66,11.19,4.27
				c1.17-2.12,3.62-3.39,6.62-3.39c1.79,0,3.65,0.45,5.39,1.31c3.94,1.95,6.4,5.63,6.09,8.97c1.18,0.25,2.3,0.66,3.35,1.21
				c0.73,0.24,1.39,0.67,1.97,1.28c2.74,2.16,4.35,5.3,4.44,8.62c0.16,6.47-5.41,11.88-12.42,12.05c-0.12,0-0.24,0-0.35,0
				c-2.53,0-4.94-0.67-7.02-1.96c-2.98,4.72-7.55,7.86-12.36,8.44C655.88,209.69,655.39,209.72,654.9,209.72z"/>
		</g>
	</g>
</g>
</svg>
